<svg width="48" height="48" viewBox="0 0 48 48" fill="none" xmlns="http://www.w3.org/2000/svg">
<g filter="url(#filter0_d_1_2651)">
<path d="M24 40C35.0457 40 44 31.0457 44 20C44 8.9543 35.0457 0 24 0C12.9543 0 4 8.9543 4 20C4 31.0457 12.9543 40 24 40Z" fill="#FE9F28"/>
<path d="M14.25 23.25V21.1058C14.25 15.7172 18.5769 11.2687 23.9655 11.2501C25.2488 11.2455 26.5203 11.4944 27.7073 11.9823C28.8942 12.4703 29.9731 13.1877 30.8821 14.0935C31.7911 14.9993 32.5124 16.0757 33.0045 17.2609C33.4967 18.446 33.75 19.7167 33.75 21V23.25C33.75 23.4489 33.671 23.6397 33.5303 23.7803C33.3897 23.921 33.1989 24 33 24H15C14.8011 24 14.6103 23.921 14.4697 23.7803C14.329 23.6397 14.25 23.4489 14.25 23.25Z" stroke="#0B2330" stroke-linecap="round" stroke-linejoin="round"/>
<path d="M24 11.25V14.25" stroke="#0B2330" stroke-linecap="round" stroke-linejoin="round"/>
<path d="M14.5822 18.4766L17.48 19.2531" stroke="#0B2330" stroke-linecap="round" stroke-linejoin="round"/>
<path d="M33.4178 18.4766L30.52 19.2531" stroke="#0B2330" stroke-linecap="round" stroke-linejoin="round"/>
<path d="M21.698 24.0001L28.1091 15.645" stroke="#0B2330" stroke-linecap="round" stroke-linejoin="round"/>
</g>
<defs>
<filter id="filter0_d_1_2651" x="0" y="0" width="48" height="48" filterUnits="userSpaceOnUse" color-interpolation-filters="sRGB">
<feFlood flood-opacity="0" result="BackgroundImageFix"/>
<feColorMatrix in="SourceAlpha" type="matrix" values="0 0 0 0 0 0 0 0 0 0 0 0 0 0 0 0 0 0 127 0" result="hardAlpha"/>
<feOffset dy="4"/>
<feGaussianBlur stdDeviation="2"/>
<feComposite in2="hardAlpha" operator="out"/>
<feColorMatrix type="matrix" values="0 0 0 0 0 0 0 0 0 0 0 0 0 0 0 0 0 0 0.25 0"/>
<feBlend mode="normal" in2="BackgroundImageFix" result="effect1_dropShadow_1_2651"/>
<feBlend mode="normal" in="SourceGraphic" in2="effect1_dropShadow_1_2651" result="shape"/>
</filter>
</defs>
</svg>
